<mxfile host="app.diagrams.net" modified="2024-03-18T11:10:17.989Z" agent="Mozilla/5.0 (Windows NT 10.0; Win64; x64) AppleWebKit/537.36 (KHTML, like Gecko) Chrome/122.0.0.0 Safari/537.36" etag="1pgXlc1jauRoGxsUj7Ye" version="24.0.5" type="device">
  <diagram name="Страница — 1" id="_1tkFkmIx7HQOi8aCSZx">
    <mxGraphModel dx="1290" dy="565" grid="1" gridSize="10" guides="1" tooltips="1" connect="1" arrows="1" fold="1" page="1" pageScale="1" pageWidth="827" pageHeight="1169" math="0" shadow="0">
      <root>
        <mxCell id="0" />
        <mxCell id="1" parent="0" />
        <mxCell id="UAIXVsi1ImjHPIyHfdtD-5" style="edgeStyle=orthogonalEdgeStyle;rounded=0;orthogonalLoop=1;jettySize=auto;html=1;entryX=0;entryY=0.5;entryDx=0;entryDy=0;" edge="1" parent="1" source="UAIXVsi1ImjHPIyHfdtD-1" target="UAIXVsi1ImjHPIyHfdtD-4">
          <mxGeometry relative="1" as="geometry" />
        </mxCell>
        <mxCell id="UAIXVsi1ImjHPIyHfdtD-1" value="Guest" style="shape=umlActor;verticalLabelPosition=bottom;verticalAlign=top;html=1;outlineConnect=0;" vertex="1" parent="1">
          <mxGeometry x="40" y="100" width="30" height="60" as="geometry" />
        </mxCell>
        <mxCell id="UAIXVsi1ImjHPIyHfdtD-15" style="edgeStyle=orthogonalEdgeStyle;rounded=0;orthogonalLoop=1;jettySize=auto;html=1;entryX=0;entryY=0.5;entryDx=0;entryDy=0;" edge="1" parent="1" source="UAIXVsi1ImjHPIyHfdtD-2" target="UAIXVsi1ImjHPIyHfdtD-14">
          <mxGeometry relative="1" as="geometry" />
        </mxCell>
        <mxCell id="UAIXVsi1ImjHPIyHfdtD-21" style="edgeStyle=orthogonalEdgeStyle;rounded=0;orthogonalLoop=1;jettySize=auto;html=1;entryX=0;entryY=0.5;entryDx=0;entryDy=0;" edge="1" parent="1" source="UAIXVsi1ImjHPIyHfdtD-2" target="UAIXVsi1ImjHPIyHfdtD-20">
          <mxGeometry relative="1" as="geometry" />
        </mxCell>
        <mxCell id="UAIXVsi1ImjHPIyHfdtD-30" style="edgeStyle=orthogonalEdgeStyle;rounded=0;orthogonalLoop=1;jettySize=auto;html=1;entryX=0;entryY=0.5;entryDx=0;entryDy=0;" edge="1" parent="1" source="UAIXVsi1ImjHPIyHfdtD-2" target="UAIXVsi1ImjHPIyHfdtD-27">
          <mxGeometry relative="1" as="geometry" />
        </mxCell>
        <mxCell id="UAIXVsi1ImjHPIyHfdtD-2" value="Authorized" style="shape=umlActor;verticalLabelPosition=bottom;verticalAlign=top;html=1;outlineConnect=0;" vertex="1" parent="1">
          <mxGeometry x="40" y="240" width="30" height="60" as="geometry" />
        </mxCell>
        <mxCell id="UAIXVsi1ImjHPIyHfdtD-37" style="edgeStyle=orthogonalEdgeStyle;rounded=0;orthogonalLoop=1;jettySize=auto;html=1;" edge="1" parent="1" source="UAIXVsi1ImjHPIyHfdtD-3" target="UAIXVsi1ImjHPIyHfdtD-32">
          <mxGeometry relative="1" as="geometry" />
        </mxCell>
        <mxCell id="UAIXVsi1ImjHPIyHfdtD-38" style="edgeStyle=orthogonalEdgeStyle;rounded=0;orthogonalLoop=1;jettySize=auto;html=1;entryX=0;entryY=0.5;entryDx=0;entryDy=0;" edge="1" parent="1" source="UAIXVsi1ImjHPIyHfdtD-3" target="UAIXVsi1ImjHPIyHfdtD-31">
          <mxGeometry relative="1" as="geometry" />
        </mxCell>
        <mxCell id="UAIXVsi1ImjHPIyHfdtD-40" style="edgeStyle=orthogonalEdgeStyle;rounded=0;orthogonalLoop=1;jettySize=auto;html=1;entryX=0;entryY=0.5;entryDx=0;entryDy=0;" edge="1" parent="1" source="UAIXVsi1ImjHPIyHfdtD-3" target="UAIXVsi1ImjHPIyHfdtD-33">
          <mxGeometry relative="1" as="geometry" />
        </mxCell>
        <mxCell id="UAIXVsi1ImjHPIyHfdtD-3" value="Manager" style="shape=umlActor;verticalLabelPosition=bottom;verticalAlign=top;html=1;outlineConnect=0;" vertex="1" parent="1">
          <mxGeometry x="40" y="575" width="30" height="60" as="geometry" />
        </mxCell>
        <mxCell id="UAIXVsi1ImjHPIyHfdtD-7" value="" style="edgeStyle=orthogonalEdgeStyle;rounded=0;orthogonalLoop=1;jettySize=auto;html=1;" edge="1" parent="1" source="UAIXVsi1ImjHPIyHfdtD-4" target="UAIXVsi1ImjHPIyHfdtD-6">
          <mxGeometry relative="1" as="geometry" />
        </mxCell>
        <mxCell id="UAIXVsi1ImjHPIyHfdtD-4" value="Login/registration" style="rounded=1;whiteSpace=wrap;html=1;" vertex="1" parent="1">
          <mxGeometry x="140" y="110" width="100" height="40" as="geometry" />
        </mxCell>
        <mxCell id="UAIXVsi1ImjHPIyHfdtD-10" value="" style="edgeStyle=orthogonalEdgeStyle;rounded=0;orthogonalLoop=1;jettySize=auto;html=1;" edge="1" parent="1" source="UAIXVsi1ImjHPIyHfdtD-6" target="UAIXVsi1ImjHPIyHfdtD-9">
          <mxGeometry relative="1" as="geometry" />
        </mxCell>
        <mxCell id="UAIXVsi1ImjHPIyHfdtD-6" value="Открыть профиль" style="whiteSpace=wrap;html=1;rounded=1;" vertex="1" parent="1">
          <mxGeometry x="304" y="110" width="116" height="40" as="geometry" />
        </mxCell>
        <mxCell id="UAIXVsi1ImjHPIyHfdtD-9" value="Редактировать профиль" style="whiteSpace=wrap;html=1;rounded=1;" vertex="1" parent="1">
          <mxGeometry x="480" y="105" width="120" height="50" as="geometry" />
        </mxCell>
        <mxCell id="UAIXVsi1ImjHPIyHfdtD-19" value="" style="edgeStyle=orthogonalEdgeStyle;rounded=0;orthogonalLoop=1;jettySize=auto;html=1;" edge="1" parent="1" source="UAIXVsi1ImjHPIyHfdtD-14" target="UAIXVsi1ImjHPIyHfdtD-18">
          <mxGeometry relative="1" as="geometry" />
        </mxCell>
        <mxCell id="UAIXVsi1ImjHPIyHfdtD-14" value="Просмотр товара" style="rounded=1;whiteSpace=wrap;html=1;" vertex="1" parent="1">
          <mxGeometry x="140" y="250" width="120" height="40" as="geometry" />
        </mxCell>
        <mxCell id="UAIXVsi1ImjHPIyHfdtD-18" value="Раскрыть товар для доп инфо" style="whiteSpace=wrap;html=1;rounded=1;" vertex="1" parent="1">
          <mxGeometry x="340" y="250" width="120" height="40" as="geometry" />
        </mxCell>
        <mxCell id="UAIXVsi1ImjHPIyHfdtD-24" value="" style="edgeStyle=orthogonalEdgeStyle;rounded=0;orthogonalLoop=1;jettySize=auto;html=1;" edge="1" parent="1" source="UAIXVsi1ImjHPIyHfdtD-20" target="UAIXVsi1ImjHPIyHfdtD-23">
          <mxGeometry relative="1" as="geometry" />
        </mxCell>
        <mxCell id="UAIXVsi1ImjHPIyHfdtD-20" value="Добавить товар в корзину" style="rounded=1;whiteSpace=wrap;html=1;" vertex="1" parent="1">
          <mxGeometry x="140" y="340" width="120" height="40" as="geometry" />
        </mxCell>
        <mxCell id="UAIXVsi1ImjHPIyHfdtD-22" value="" style="endArrow=classic;html=1;rounded=0;entryX=0;entryY=0;entryDx=0;entryDy=0;" edge="1" parent="1" source="UAIXVsi1ImjHPIyHfdtD-1" target="UAIXVsi1ImjHPIyHfdtD-14">
          <mxGeometry width="50" height="50" relative="1" as="geometry">
            <mxPoint x="80" y="150" as="sourcePoint" />
            <mxPoint x="630" y="270" as="targetPoint" />
            <Array as="points">
              <mxPoint x="110" y="140" />
              <mxPoint x="110" y="250" />
            </Array>
          </mxGeometry>
        </mxCell>
        <mxCell id="UAIXVsi1ImjHPIyHfdtD-26" value="" style="edgeStyle=orthogonalEdgeStyle;rounded=0;orthogonalLoop=1;jettySize=auto;html=1;" edge="1" parent="1" source="UAIXVsi1ImjHPIyHfdtD-23" target="UAIXVsi1ImjHPIyHfdtD-25">
          <mxGeometry relative="1" as="geometry" />
        </mxCell>
        <mxCell id="UAIXVsi1ImjHPIyHfdtD-23" value="Оформить заказ" style="whiteSpace=wrap;html=1;rounded=1;" vertex="1" parent="1">
          <mxGeometry x="340" y="340" width="120" height="40" as="geometry" />
        </mxCell>
        <mxCell id="UAIXVsi1ImjHPIyHfdtD-25" value="Оплата заказа" style="whiteSpace=wrap;html=1;rounded=1;" vertex="1" parent="1">
          <mxGeometry x="540" y="340" width="120" height="40" as="geometry" />
        </mxCell>
        <mxCell id="UAIXVsi1ImjHPIyHfdtD-29" value="" style="edgeStyle=orthogonalEdgeStyle;rounded=0;orthogonalLoop=1;jettySize=auto;html=1;" edge="1" parent="1" source="UAIXVsi1ImjHPIyHfdtD-27" target="UAIXVsi1ImjHPIyHfdtD-28">
          <mxGeometry relative="1" as="geometry" />
        </mxCell>
        <mxCell id="UAIXVsi1ImjHPIyHfdtD-27" value="Редактировать заказ" style="rounded=1;whiteSpace=wrap;html=1;" vertex="1" parent="1">
          <mxGeometry x="140" y="420" width="120" height="40" as="geometry" />
        </mxCell>
        <mxCell id="UAIXVsi1ImjHPIyHfdtD-28" value="Отменить заказ" style="whiteSpace=wrap;html=1;rounded=1;" vertex="1" parent="1">
          <mxGeometry x="340" y="420" width="120" height="40" as="geometry" />
        </mxCell>
        <mxCell id="UAIXVsi1ImjHPIyHfdtD-35" value="" style="edgeStyle=orthogonalEdgeStyle;rounded=0;orthogonalLoop=1;jettySize=auto;html=1;" edge="1" parent="1" source="UAIXVsi1ImjHPIyHfdtD-31" target="UAIXVsi1ImjHPIyHfdtD-34">
          <mxGeometry relative="1" as="geometry" />
        </mxCell>
        <mxCell id="UAIXVsi1ImjHPIyHfdtD-31" value="Создать карточку товара" style="rounded=1;whiteSpace=wrap;html=1;" vertex="1" parent="1">
          <mxGeometry x="150" y="510" width="120" height="40" as="geometry" />
        </mxCell>
        <mxCell id="UAIXVsi1ImjHPIyHfdtD-32" value="Управление заказами" style="rounded=1;whiteSpace=wrap;html=1;" vertex="1" parent="1">
          <mxGeometry x="150" y="585" width="120" height="40" as="geometry" />
        </mxCell>
        <mxCell id="UAIXVsi1ImjHPIyHfdtD-33" value="Создание скидок/акций" style="rounded=1;whiteSpace=wrap;html=1;" vertex="1" parent="1">
          <mxGeometry x="150" y="660" width="120" height="40" as="geometry" />
        </mxCell>
        <mxCell id="UAIXVsi1ImjHPIyHfdtD-34" value="Редактирование карточки" style="whiteSpace=wrap;html=1;rounded=1;" vertex="1" parent="1">
          <mxGeometry x="350" y="510" width="110" height="40" as="geometry" />
        </mxCell>
      </root>
    </mxGraphModel>
  </diagram>
</mxfile>
